<?xml version="1.0"?> <svg xmlns="http://www.w3.org/2000/svg" id="Layer_1" data-name="Layer 1" viewBox="0 0 500 500"><defs></defs><path fill="#D97757" d="M445.5,94.62l-9.66,63.78-67.35,65.85H280.56L213.2,158.4l-9.65-63.78h26.24l1.22,8.11c3.88,25.61,15.38,48.81,32.47,65.53h0c17.1,16.72,38.71,25.89,61,25.89h0c22.33,0,43.94-9.17,61-25.89h0c17.1-16.72,28.6-39.92,32.47-65.53l1.23-8.11Z"></path><polygon fill="#c9c3b8" points="181.55 94.62 51 94.62 51 165.87 112 224.25 254.37 224.25 191.94 163.21 181.55 94.62"></polygon><path fill="#D97757" d="M250.08,434.17h-69V320a30,30,0,0,1,30-30H290V238.67h69V329a30,30,0,0,1-30,30H250.08Zm-62-7h55V352H329a23,23,0,0,0,23-23V245.67H297V297H211.08a23,23,0,0,0-23,23Z"></path><rect fill="#D97757" x="256.75" y="293.52" width="7" height="62"></rect><circle fill="#D97757" cx="280.88" cy="314.42" r="6.75"></circle><circle fill="#D97757" cx="280.88" cy="336.42" r="6.75"></circle></svg>