<?xml version="1.0"?> <svg xmlns="http://www.w3.org/2000/svg" id="Layer_1" data-name="Layer 1" viewBox="0 0 500 500"><defs></defs><path fill="#c9c3b8" d="M75.25,294.59H430.6a0,0,0,0,1,0,0v76.25a48.44,48.44,0,0,1-48.44,48.44H123.69a48.44,48.44,0,0,1-48.44-48.44V294.59A0,0,0,0,1,75.25,294.59Z"></path><rect fill="#c9c3b8" x="53.98" y="246.27" width="397.89" height="31.12" rx="15.56"></rect><rect fill="#c9c3b8" x="123.93" y="396.02" width="27" height="45"></rect><rect fill="#c9c3b8" x="354.93" y="396.02" width="27" height="45"></rect><rect fill="#c9c3b8" x="122.7" y="95.68" width="73.75" height="15.37" transform="translate(-26.35 143.12) rotate(-45)"></rect><path fill="#c9c3b8" d="M143.86,75.53h2a26.25,26.25,0,0,1,26.25,26.25v0a0,0,0,0,1,0,0h-54.5a0,0,0,0,1,0,0v0A26.25,26.25,0,0,1,143.86,75.53Z" transform="translate(-20.26 128.4) rotate(-45)"></path><path fill="#c9c3b8" d="M98.4,261.84h-20V111.27a43,43,0,0,1,74.3-29.48L138.14,95.51a22.75,22.75,0,0,0-16.74-7.24,23,23,0,0,0-23,23Z"></path><rect fill="#D97757" x="153.91" y="135.34" width="10" height="8.5" transform="translate(-52.16 153.27) rotate(-45)"></rect><path fill="#D97757" d="M222.22,210l-10.64-10.64,7.07-7.07,10.64,10.64Zm-21.28-21.28L190.3,178.05l7.07-7.07L208,181.62Zm-21.28-21.28L169,156.77l7.07-7.07,10.64,10.64Z"></path><rect fill="#D97757" x="234.4" y="215.83" width="10" height="8.5" transform="translate(-85.5 233.74) rotate(-45)"></rect><rect fill="#D97757" x="174.19" y="115.06" width="10" height="8.5" transform="translate(-31.88 161.67) rotate(-45)"></rect><path fill="#D97757" d="M242.5,189.69l-10.64-10.64,7.07-7.07,10.64,10.64Zm-21.28-21.28-10.64-10.64,7.07-7.07,10.64,10.64Zm-21.28-21.28L189.3,136.49l7.07-7.07L207,140.06Z"></path><rect fill="#D97757" x="254.68" y="195.55" width="10" height="8.5" transform="translate(-65.22 242.14) rotate(-45)"></rect><rect fill="#D97757" x="194.47" y="94.78" width="10" height="8.5" transform="translate(-11.6 170.07) rotate(-45)"></rect><path fill="#D97757" d="M262.78,169.41l-10.64-10.64,7.07-7.07,10.64,10.64ZM241.5,148.13l-10.64-10.64,7.07-7.07,10.64,10.64Zm-21.28-21.28-10.64-10.64,7.07-7.07,10.64,10.64Z"></path><rect fill="#D97757" x="274.96" y="175.27" width="10" height="8.5" transform="translate(-44.94 250.54) rotate(-45)"></rect></svg>