<?xml version="1.0"?> <svg xmlns="http://www.w3.org/2000/svg" id="Layer_1" data-name="Layer 1" viewBox="0 0 500 500"><defs></defs><path fill="#D97757" d="M402.39,227.73a75.49,75.49,0,0,0,17.85-78.43L384.58,185l-36.42-9.76-9.76-36.42,35.66-35.66A75.49,75.49,0,0,0,277,196.91L118.9,333a50.67,50.67,0,0,0-2.7,74.18h0a50.67,50.67,0,0,0,74.18-2.7L326,246.23A75.46,75.46,0,0,0,402.39,227.73ZM134.71,388.66a23.49,23.49,0,1,1,33.22,0A23.5,23.5,0,0,1,134.71,388.66Z"></path><path fill="#c9c3b8" d="M311.66,280.71a6.89,6.89,0,0,1,4.89,2L392,358.14a6.92,6.92,0,0,1-9.78,9.79l-75.42-75.42a6.89,6.89,0,0,1-2-4.51l-16,18.63a6.87,6.87,0,0,1,2.32,1.54l75.41,75.41a6.92,6.92,0,1,1-9.78,9.78L281.33,318a7,7,0,0,1-1.06-1.38l-10.72,12.51,73.64,73.64a41,41,0,1,0,58-58L323.1,266.59,311,280.74C311.2,280.72,311.43,280.71,311.66,280.71Z"></path><path fill="#c9c3b8" d="M151.32,359.63a12.42,12.42,0,1,0,8.78,3.63A12.34,12.34,0,0,0,151.32,359.63Z"></path><polygon fill="#c9c3b8" points="155.96 142.21 152.38 130.99 127.89 114.14 112.63 129.4 129.48 153.89 140.7 157.47 217.09 233.86 233.49 219.74 155.96 142.21"></polygon><polygon fill="#c9c3b8" points="140.7 157.47 129.48 153.89 112.63 129.4 127.89 114.14 152.38 130.99 155.96 142.21 233.49 219.74 239.38 214.67 162.77 138.06 159.77 128.64 158.96 126.11 156.78 124.61 132.28 107.75 126.97 104.1 122.41 108.66 107.15 123.92 102.59 128.48 106.25 133.79 123.1 158.29 124.61 160.47 127.13 161.28 136.56 164.28 211.2 238.93 217.09 233.86 140.7 157.47"></polygon><path fill="#c9c3b8" d="M328.16,260.69l-5.06,5.9,78.11,78.11a41,41,0,1,1-58,58l-73.64-73.64L264.5,335l73.21,73.22a48.78,48.78,0,1,0,69-69Z"></path><path fill="#c9c3b8" d="M382.18,367.93a6.92,6.92,0,0,0,9.78-9.79l-75.41-75.41a6.89,6.89,0,0,0-4.89-2c-.23,0-.46,0-.68,0L304.76,288a6.89,6.89,0,0,0,2,4.51Z"></path><path fill="#c9c3b8" d="M356.74,393.36a6.92,6.92,0,1,0,9.78-9.78l-75.41-75.41a6.87,6.87,0,0,0-2.32-1.54l-8.52,9.94a7,7,0,0,0,1.06,1.38Z"></path></svg>