<?xml version="1.0"?> <svg xmlns="http://www.w3.org/2000/svg" xmlns:xlink="http://www.w3.org/1999/xlink" version="1.1" id="Layer_1" x="0px" y="0px" viewBox="0 0 500 500" style="enable-background:new 0 0 500 500;" xml:space="preserve">  <g> <g> <g> <g> <rect x="323.7" y="98.2" class="st0" width="9.3" height="19.5"></rect> </g> </g> <g> <g> <path class="st0" d="M399.8,122.3h-9.3v-9.8c0-2.8-2.3-5.1-5.1-5.1H376v-9.3h9.4c7.9,0,14.4,6.5,14.4,14.4V122.3z"></path> </g> </g> <g> <g> <path class="st0" d="M266.1,122.3h-9.3v-9.8c0-7.9,6.5-14.4,14.4-14.4h9.4v9.3h-9.4c-2.8,0-5.1,2.3-5.1,5.1V122.3z"></path> </g> </g> </g> <g> <polygon class="st0" points="248.7,366.1 207.9,366.1 207.9,138.3 449.3,138.3 449.3,308.8 442.3,308.8 442.3,145.3 214.9,145.3 214.9,359.1 248.7,359.1 "></polygon> </g> <g> <g> <path class="st0" d="M271,170.7c6.7,0,12.2,5.5,12.2,12.2s-5.5,12.2-12.2,12.2s-12.2-5.5-12.2-12.2S264.3,170.7,271,170.7 M271,163.7c-10.6,0-19.2,8.6-19.2,19.2s8.6,19.2,19.2,19.2s19.2-8.6,19.2-19.2S281.6,163.7,271,163.7L271,163.7z"></path> </g> <g> <path class="st0" d="M380.6,170.7c6.7,0,12.2,5.5,12.2,12.2s-5.5,12.2-12.2,12.2c-6.7,0-12.2-5.5-12.2-12.2 S373.9,170.7,380.6,170.7 M380.6,163.7c-10.6,0-19.2,8.6-19.2,19.2s8.6,19.2,19.2,19.2c10.6,0,19.2-8.6,19.2-19.2 S391.2,163.7,380.6,163.7L380.6,163.7z"></path> </g> </g> <g> <rect x="353.7" y="219.9" class="st0" width="92.1" height="7"></rect> </g> <g> <rect x="211.4" y="219.9" class="st0" width="90.1" height="7"></rect> </g> <g> <path class="st0" d="M416.9,274.3h-7v-21.7c0-1-0.8-1.8-1.8-1.8h-27.5v-7h27.5c4.9,0,8.8,4,8.8,8.8V274.3z"></path> </g> <g> <path class="st0" d="M294.4,336.7h-50.9c-4.9,0-8.8-4-8.8-8.8v-75.4c0-4.9,4-8.8,8.8-8.8h40.9v7h-40.9c-1,0-1.8,0.8-1.8,1.8v75.4 c0,1,0.8,1.8,1.8,1.8h50.9V336.7z"></path> </g> <g> <rect x="51.1" y="215.1" transform="matrix(-1 -4.490154e-11 4.490154e-11 -1 248.9235 446.8052)" class="st0" width="146.8" height="16.5"></rect> </g> <g> <path class="st1" d="M51.1,239.6v123h146.8v-123H51.1z M180.6,282.6h9.3v37h-9.3V282.6z"></path> </g> <g> <path class="st1" d="M51.1,141.8v65.4h146.8v-65.4H51.1z M106,169.9h37v9.3h-37V169.9z"></path> </g> <g> <rect x="51.1" y="117.7" class="st1" width="397.8" height="15.5"></rect> </g> <g> <g> <polygon class="st0" points="413.1,393.4 342.5,320.8 289.9,372 285,367 342.7,311 413.2,383.5 436.3,361.1 366.6,289.4 371.6,284.5 446.2,361.3 "></polygon> </g> <g> <path class="st1" d="M311.3,366.6L291,345.7c-1.8-1.8-4.7-1.9-6.5-0.1l-67.8,65.8c-1.8,1.8-1.9,4.7-0.1,6.5l20.3,20.9 c1.8,1.8,4.7,1.9,6.5,0.1l67.8-65.8C313.1,371.3,313.1,368.4,311.3,366.6z"></path> </g> <g> <path class="st1" d="M405.5,358.2L299,248.5c-1.6-1.7-1.6-4.3,0.1-5.9l27.8-27c1.7-1.6,4.3-1.6,5.9,0.1l106.5,109.7 c1.6,1.7,1.6,4.3-0.1,5.9l-27.8,27C409.7,359.9,407.1,359.8,405.5,358.2z"></path> </g> </g> </g> </svg>