<?xml version="1.0"?> <svg xmlns="http://www.w3.org/2000/svg" id="Layer_1" data-name="Layer 1" viewBox="0 0 500 500"><defs></defs><path class="cls-1" d="M71.44,155.58l185.94,90.87-11.15,22.81-66.82-32.65V405.66h258.7V273.21H463.5V431.06H154V224.2L60.29,178.39l11.15-22.81m-3.22-9.36-3.07,6.29L54,175.32l-3.07,6.29,6.29,3.07L147,228.57V438.06H470.5V266.21H431.11V398.66H186.41V247.82l56.75,27.73,6.28,3.07,3.08-6.29,11.15-22.81,3.07-6.29-6.29-3.07L74.51,149.29l-6.29-3.07Z"></path><path class="cls-2" d="M355.86,333a41.72,41.72,0,0,0-12.43-2.26c-12.55,0-27.87,8.9-34.22,8.9s-16.29-8.9-28.71-8.9a37.31,37.31,0,0,0-11,1.92l21.16-77.92a20.9,20.9,0,0,0-10.8-24.16L77.46,129l6.7-12.94L313,232.07a32.9,32.9,0,0,1,16.41,19.19Z"></path><path class="cls-2" d="M400.85,330.72c-8.29,0-11.87,8.9-21.81,8.9-6.67,0-14.78-4-23.18-6.64a41.72,41.72,0,0,0-12.43-2.26c-12.55,0-27.87,8.9-34.22,8.9s-16.29-8.9-28.71-8.9a37.31,37.31,0,0,0-11,1.92c-8.43,2.61-16.43,7-23.49,7-10.07,0-20-8.9-27.05-8.9s-18.77,8.9-18.77,8.9v43.94H418.23V339.62S409.13,330.72,400.85,330.72Zm0,18.84c-3.08,0-5.49,1.69-8.27,3.65-3.5,2.46-7.47,5.26-13.54,5.26-5.17,0-10.77-2.06-16.71-4.23-1.53-.56-3.06-1.13-4.61-1.66-4.79-1.66-9.63-3-14.29-3s-9.9,1.38-14.84,3c-2.34.78-4.6,1.61-6.71,2.38-5.33,2-9.54,3.51-12.67,3.51s-6.81-1.68-10.91-3.62c-1.59-.75-3.25-1.54-5-2.27a33.05,33.05,0,0,0-12.83-3c-4.59,0-9.23,1.37-13.8,3-1.42.52-2.84,1.06-4.25,1.6-5.74,2.2-11.16,4.29-16.45,4.29-6.12,0-11.95-2.83-17.1-5.33-3.79-1.84-7.38-3.58-10-3.58-2.35,0-6.13,1.45-10.63,4.08v-6.3c5.49-3.2,7.23-3.3,10.64-3.3,3.84,0,8,2,12.36,4.14,4.84,2.34,9.84,4.77,14.69,4.77,4.26,0,9.22-1.91,14.47-3.92,1.68-.64,3.38-1.29,5.09-1.9A44.57,44.57,0,0,1,280.5,344c7.87,0,14.68,3.23,20.16,5.82a49.73,49.73,0,0,0,6.45,2.72,7.82,7.82,0,0,0,2.1.37,11.14,11.14,0,0,0,2.43-.37c2.25-.56,5.23-1.66,8.34-2.8,7-2.56,15.62-5.74,23.45-5.74,5.87,0,11.61,1.72,17.2,3.7l3.61,1.31c5.46,2,10.61,3.9,14.8,3.9s7.26-2.07,10.37-4.26S396,344,400.85,344c4,0,5.36-.24,10.22,3l0,6.48C407.23,350.94,403.68,349.56,400.85,349.56Z"></path></svg>