<?xml version="1.0"?> <svg xmlns="http://www.w3.org/2000/svg" id="Layer_1" data-name="Layer 1" viewBox="0 0 500 500"><defs></defs><rect class="cls-1" x="314.8" y="162.56" width="67.05" height="23.39" transform="translate(225.24 -195.26) rotate(45)"></rect><path class="cls-2" d="M372.69,121.1h10.8a28.12,28.12,0,0,1,28.12,28.12v18.66a0,0,0,0,1,0,0H344.56a0,0,0,0,1,0,0V149.22a28.12,28.12,0,0,1,28.12-28.12Z" transform="translate(212.91 -225.03) rotate(45)"></path><path class="cls-1" d="M116.8,390s12.64,2.95,15.17,15.17l-19.07,4.53Z"></path><path class="cls-1" d="M129.33,362.26l31,31-43.14,13.32a.9.9,0,0,1-1.05-.36.83.83,0,0,1-.12-.81l13.32-43.14m-3.26-13.16-16.75,54.24a7.92,7.92,0,0,0,9.92,9.92l54.24-16.75L126.07,349.1Z"></path><rect class="cls-2" x="290.94" y="172.92" width="50.38" height="67.05" transform="translate(-53.39 284.01) rotate(-45)"></rect><rect class="cls-2" x="145.66" y="302.73" width="81.34" height="67.05" transform="translate(-183.19 230.24) rotate(-45)"></rect><path class="cls-1" d="M150.78,103.48,419.1,371.8l-56.48,56.47L94.31,160l56.47-56.48m0-9.9L84.41,160,362.62,438.17,429,371.8,150.78,93.58Z"></path><rect class="cls-1" x="104.73" y="162.21" width="42.91" height="7" transform="translate(-80.21 137.74) rotate(-44.99)"></rect><rect class="cls-1" x="119.28" y="180.64" width="24.14" height="7" transform="translate(-91.73 146.79) rotate(-44.99)"></rect><rect class="cls-1" x="131.02" y="192.38" width="24.14" height="7" transform="translate(-96.59 158.52) rotate(-44.99)"></rect><rect class="cls-1" x="139.26" y="196.73" width="42.91" height="7" transform="translate(-94.51 172.26) rotate(-44.99)"></rect><rect class="cls-1" x="153.81" y="215.17" width="24.14" height="7" transform="translate(-106.03 181.31) rotate(-44.99)"></rect><rect class="cls-1" x="165.54" y="226.9" width="24.14" height="7" transform="translate(-110.9 193.05) rotate(-44.99)"></rect><rect class="cls-1" x="173.78" y="231.26" width="42.91" height="7" transform="translate(-108.81 206.78) rotate(-44.99)"></rect><rect class="cls-1" x="188.33" y="249.69" width="24.14" height="7" transform="translate(-120.34 215.85) rotate(-45)"></rect><rect class="cls-1" x="200.07" y="261.43" width="24.14" height="7" transform="translate(-125.2 227.6) rotate(-45)"></rect><rect class="cls-1" x="208.31" y="265.78" width="42.91" height="7" transform="translate(-123.11 241.34) rotate(-45)"></rect><rect class="cls-1" x="222.86" y="284.22" width="24.14" height="7" transform="translate(-134.64 250.39) rotate(-45)"></rect><rect class="cls-1" x="234.59" y="295.96" width="24.14" height="7" transform="translate(-139.5 262.12) rotate(-45)"></rect><rect class="cls-1" x="242.83" y="300.31" width="42.91" height="7" transform="translate(-137.42 275.86) rotate(-45)"></rect><rect class="cls-1" x="257.38" y="318.75" width="24.14" height="7" transform="translate(-148.94 284.91) rotate(-45)"></rect><rect class="cls-1" x="269.12" y="330.48" width="24.14" height="7" transform="translate(-153.8 296.65) rotate(-45)"></rect><rect class="cls-1" x="277.36" y="334.83" width="42.91" height="7" transform="translate(-151.72 310.39) rotate(-45)"></rect><rect class="cls-1" x="291.91" y="353.27" width="24.14" height="7" transform="translate(-163.24 319.44) rotate(-45)"></rect><rect class="cls-1" x="303.64" y="365.01" width="24.14" height="7" transform="translate(-168.1 331.18) rotate(-45)"></rect><rect class="cls-1" x="311.88" y="369.36" width="42.91" height="7" transform="translate(-166.02 344.92) rotate(-45)"></rect><rect class="cls-1" x="326.43" y="387.8" width="24.14" height="7" transform="translate(-177.54 353.97) rotate(-45)"></rect><rect class="cls-1" x="338.17" y="399.53" width="24.14" height="7" transform="translate(-182.4 365.7) rotate(-45)"></rect></svg>