<?xml version="1.0"?> <svg xmlns="http://www.w3.org/2000/svg" id="Layer_1" data-name="Layer 1" viewBox="0 0 500 500"><defs></defs><path class="cls-1" d="M237.09,434.16H131.59V196.28h105.5Zm-98.5-7h91.5V203.28h-91.5ZM220.09,403h-71.5V377.93h71.5Zm-64.5-7h57.5V384.93h-57.5Zm64.5-68h-71.5V302.93h71.5Zm-64.5-7h57.5V309.93h-57.5Zm64.5-68h-71.5V227.93h71.5Zm-64.5-7h57.5V234.93h-57.5Z"></path><path class="cls-2" d="M309.69,96.6V76.42H288.81v28.05l-59.06,22.26V434.17h139V76.42ZM270.77,402.52H252.69V384.43h18.08Zm0-75H252.69V309.43h18.08Zm0-75H252.69V234.43h18.08Zm0-75H252.69V159.43h18.08Zm37.52,225H290.21V384.43h18.08Zm0-75H290.21V309.43h18.08Zm0-75H290.21V234.43h18.08Zm0-75H290.21V159.43h18.08Zm37.52,225H327.73V384.43h18.08Zm0-75H327.73V309.43h18.08Zm0-75H327.73V234.43h18.08Zm0-75H327.73V159.43h18.08Z"></path></svg>