<?xml version="1.0"?> <svg xmlns="http://www.w3.org/2000/svg" id="Layer_1" data-name="Layer 1" viewBox="0 0 500 500"><defs></defs><path fill="#D86E28" d="M258,178.67v87H234v-87h24m7-7H227v101h38v-101Z"></path><path fill="#c9c3b8" d="M298,110.67H194v14.5H177v-14.5H147a4,4,0,0,0-4,4V174.7a4,4,0,0,0,4,4h30v-13.5h17v13.5H298v-33.5l57.5,20.5V152.31a30,30,0,0,0-19.91-28.24Z"></path><path fill="#D86E28" d="M258,86.17v9.75H234V86.17h24m4.63-7H229.38A2.37,2.37,0,0,0,227,81.55v21.37h38V81.55a2.37,2.37,0,0,0-2.37-2.38Z"></path><path fill="#c9c3b8" d="M274.25,281.67h-56.5a5.74,5.74,0,0,0-5.75,5.75v158.5a5.74,5.74,0,0,0,5.75,5.75h56.5a5.74,5.74,0,0,0,5.75-5.75V287.42A5.74,5.74,0,0,0,274.25,281.67ZM236,432.67a4.5,4.5,0,1,1-9,0V306.17a4.5,4.5,0,0,1,9,0Z"></path></svg>